<?xml version="1.0" encoding="utf-8"?>
<!-- Generator: Adobe Illustrator 19.1.0, SVG Export Plug-In . SVG Version: 6.00 Build 0)  -->
<svg version="1.1" xmlns="http://www.w3.org/2000/svg" xmlns:xlink="http://www.w3.org/1999/xlink" x="0px" y="0px"
	 viewBox="0 0 44 44" style="enable-background:new 0 0 44 44;" xml:space="preserve">
<style type="text/css">
	.st0{fill:#56C200;}
	.st1{fill:#FFFFFF;}
</style>
<g id="Layer_2">
	<rect class="st0" width="44" height="44"/>
</g>
<g id="Layer_1">
	<g>
		<path class="st1" d="M30.4,33.7l0-13.9c0-1.4-0.9-2.2-2.5-2.2c-1.7,0-2.6,0.7-2.6,2.2l0,11.2c0,1.9-0.7,3.5-2.1,4.8
			c-1.4,1.2-3.1,1.8-5,1.8h-0.3c-2,0-3.7-0.6-5-1.8c-1.4-1.3-2.1-2.9-2.1-4.8l0-11.2c0-1.4-0.8-2.1-2.4-2.2v-4.4
			c1.9,0,3.6,0.7,4.9,1.8c1.4,1.2,2.1,2.8,2.1,4.8l0,11.2c0,1.5,0.9,2.2,2.5,2.2h0.2c1.7,0,2.5-0.7,2.5-2.2v-9.6l0-0.1v-1.5
			c0-2,0.7-3.6,2.1-4.8c0.7-0.6,1.4-1,2.2-1.3c1-0.3,2-0.5,2.9-0.5c2,0,3.7,0.6,5,1.8s2.1,2.8,2.1,4.8l0,13.9H30.4z M15.7,7
			c0.5,0.5,0.8,1.1,0.8,1.9s-0.2,1.4-0.8,1.9s-1.1,0.8-1.9,0.8s-1.4-0.2-1.9-0.8S11,9.7,11,8.9s0.3-1.4,0.8-1.9s1.1-0.8,1.9-0.8
			S15.2,6.5,15.7,7z M23.1,7c0.5,0.5,0.8,1.1,0.8,1.9s-0.2,1.4-0.8,1.9s-1.1,0.8-1.9,0.8s-1.4-0.2-1.9-0.8s-0.8-1.2-0.8-1.9
			s0.3-1.4,0.8-1.9s1.1-0.8,1.9-0.8S22.6,6.5,23.1,7z"/>
	</g>
</g>
</svg>
